<svg width="2000" height="2000" viewBox="0 0 2000 2000" fill="none" xmlns="http://www.w3.org/2000/svg">
<path d="M64.3655 924.422C64.3655 924.422 303.667 469.979 792 823.305ZM1938.42 1041.38C1938.42 1041.38 1690.26 1537.03 1196.5 1184.44ZM283.389 1608.08C283.389 1608.08 129.969 1113.37 734 1020.88ZM1691.25 365.627C1691.25 365.627 1866.6 892.631 1266 991.704ZM924.337 1936.94C924.337 1936.94 467.224 1696.23 826.352 1205ZM1041.29 62.8838C1041.29 62.8838 1536.08 310.604 1185.29 803.5ZM1608.08 1716.62C1608.08 1716.62 1111.46 1870.63 1020.35 1262.5ZM365.626 308.76C365.626 308.76 890.578 134.086 991.12 730.5ZM941.259 1941.26C421.417 1908.82 26.3009 1461.1 58.743 941.259C91.1851 421.416 538.9 26.2999 1058.74 58.742C1578.59 91.1841 1973.7 538.899 1941.26 1058.74C1908.82 1578.58 1461.1 1973.7 941.259 1941.26Z" fill=""/>
<path d="M64.3655 924.422C64.3655 924.422 303.667 469.979 792 823.305M1938.42 1041.38C1938.42 1041.38 1690.26 1537.03 1196.5 1184.44M283.389 1608.08C283.389 1608.08 129.969 1113.37 734 1020.88M1691.25 365.627C1691.25 365.627 1866.6 892.631 1266 991.704M924.337 1936.94C924.337 1936.94 467.224 1696.23 826.352 1205M1041.29 62.8838C1041.29 62.8838 1536.08 310.604 1185.29 803.5M1608.08 1716.62C1608.08 1716.62 1111.46 1870.63 1020.35 1262.5M365.626 308.76C365.626 308.76 890.578 134.086 991.12 730.5M941.259 1941.26C421.417 1908.82 26.3009 1461.1 58.743 941.259C91.1851 421.416 538.9 26.2999 1058.74 58.742C1578.59 91.1841 1973.7 538.899 1941.26 1058.74C1908.82 1578.58 1461.1 1973.7 941.259 1941.26Z" stroke="white" stroke-width="40"/>
<path d="M999.792 1266.5C1147.12 1266.5 1266.55 1147.07 1266.55 999.746C1266.55 852.423 1147.12 732.993 999.792 732.993C852.468 732.993 733.039 852.423 733.039 999.746C733.039 1147.07 852.468 1266.5 999.792 1266.5Z" stroke="white" stroke-width="40"/>
<path d="M1061.18 962.318L1097.86 957.377L897.906 1316.43L980.736 1028.08L985.175 1012.63L969.353 1015.48L916.207 1025.05L995.877 824.248L1119.23 827.925L1051.15 947.459L1041.15 965.016L1061.18 962.318Z" fill="" stroke="white" stroke-width="30"/>
</svg>
