<svg width="1953" height="943" viewBox="0 0 1953 943" fill="none" xmlns="http://www.w3.org/2000/svg">
<g clip-path="url(#clip0_56_2)">
<path d="M892.8 364.6L891.6 377H819.6L820.6 338.4L819.6 248.8H891.8L892.6 250.4L891.4 262.8L861.2 262.2L835.8 262.6L835.4 304.6L859.4 305L880.6 304.4L881.8 305.8L880.4 318.2L858 317.8L835.2 318L835 337L835.6 363.6L861 363.8L891.8 363L892.8 364.6ZM1014.48 339.4L1014.88 377H998.084L931.684 274.4H930.684L930.484 334.8L930.684 377H916.284L916.884 339L916.484 248.8H933.084L999.284 351.4H1000.68L1000.48 249.6L1015.48 248.4L1014.48 339.4ZM1100.69 247.8C1114.15 247.8 1126.69 250.8 1138.29 256.8L1135.09 272L1133.09 272.4C1126.69 268.4 1120.75 265.533 1115.29 263.8C1109.95 262.067 1104.29 261.2 1098.29 261.2C1069.35 261.2 1054.89 279.067 1054.89 314.8C1054.89 332 1058.22 344.667 1064.89 352.8C1071.69 360.8 1082.15 364.8 1096.29 364.8C1100.02 364.8 1103.75 364.467 1107.49 363.8C1111.35 363.133 1116.29 361.867 1122.29 360L1122.69 345L1122.49 325.8L1137.49 324.6L1137.09 342.8L1137.89 370.8C1129.22 373.467 1121.55 375.4 1114.89 376.6C1108.22 377.8 1101.75 378.4 1095.49 378.4C1076.42 378.4 1062.09 373 1052.49 362.2C1043.02 351.4 1038.29 335.8 1038.29 315.4C1038.29 293.4 1043.69 276.667 1054.49 265.2C1065.29 253.6 1080.69 247.8 1100.69 247.8ZM1242.41 364.6L1241.21 377H1169.21L1170.21 338.4L1169.21 248.8H1241.41L1242.21 250.4L1241.01 262.8L1210.81 262.2L1185.41 262.6L1185.01 304.6L1209.01 305L1230.21 304.4L1231.41 305.8L1230.01 318.2L1207.61 317.8L1184.81 318L1184.61 337L1185.21 363.6L1210.61 363.8L1241.41 363L1242.41 364.6ZM1364.09 339.4L1364.49 377H1347.69L1281.29 274.4H1280.29L1280.09 334.8L1280.29 377H1265.89L1266.49 339L1266.09 248.8H1282.69L1348.89 351.4H1350.29L1350.09 249.6L1365.09 248.4L1364.09 339.4ZM1500.82 337L1501.22 377H1485.42L1486.22 338.4L1486.02 319.2L1450.42 319L1417.82 319.2L1417.62 337L1418.22 377H1402.42L1403.02 338.4L1402.42 248.8H1418.42L1417.82 305.6L1451.82 305.8L1486.02 305.6L1485.42 248.8H1501.62L1500.82 337ZM1631.54 377H1615.14L1612.14 364.2L1604.94 342.2L1576.14 341.6L1550.14 342.2L1542.34 363.4L1539.14 377H1523.14L1570.14 248.8H1588.74L1631.54 377ZM1600.54 328.6L1579.74 265.4H1578.34L1555.14 328.6L1577.54 329L1600.54 328.6ZM1706.76 325.2C1715.56 339.733 1726.63 355.733 1739.96 373.2L1739.76 375.2C1734.96 377.067 1730.03 378.267 1724.96 378.8L1722.76 377.4C1711.83 361 1702.03 345 1693.36 329.4H1669.96V337L1670.76 377H1654.56L1655.56 338.4L1654.56 248.8L1693.76 248.6C1706.29 248.6 1715.96 251.8 1722.76 258.2C1729.69 264.467 1733.16 273.467 1733.16 285.2C1733.16 294 1730.83 301.933 1726.16 309C1721.63 315.933 1715.16 321.333 1706.76 325.2ZM1670.16 315.8L1694.16 316.4C1709.09 312.133 1716.56 302.2 1716.56 286.6C1716.56 278.467 1714.36 272.4 1709.96 268.4C1705.56 264.267 1698.96 262.067 1690.16 261.8L1670.76 262.4L1670.16 315.8ZM1780.9 337L1781.7 377H1765.5L1766.5 338.4L1765.5 248.8H1781.9L1780.9 337ZM1911.61 377H1895.21L1892.21 364.2L1885.01 342.2L1856.21 341.6L1830.21 342.2L1822.41 363.4L1819.21 377H1803.21L1850.21 248.8H1868.81L1911.61 377ZM1880.61 328.6L1859.81 265.4H1858.41L1835.21 328.6L1857.61 329L1880.61 328.6Z" fill="white"/>
<path d="M579.6 627H541.2L527.6 471L496.4 187.8H491.6L335.6 565.4H298L147.6 187.8H142.8L111.6 468.6L96.4 627H59.6L114.8 115.8H162L190.8 194.2L316.4 510.2H320.4L453.2 187.8L480.4 115.8H527.6L579.6 627Z" fill="white"/>
<path d="M749.4 590.4L750.2 667.2C750.2 706.133 741.133 738.4 723 764C704.867 790.133 673.667 815.467 629.4 840L612.6 816.8V810.4C648.333 789.067 673.667 768 688.6 747.2C703.533 725.867 711 699.467 711 668V595.2L709.4 284H609.4L604.6 280L607.8 248.8H751L749.4 590.4Z" fill="white"/>
<path d="M863.1 554.56L862.38 562H819.18L819.78 538.84L819.18 485.08H862.5L862.98 486.04L862.26 493.48L844.14 493.12L828.9 493.36L828.66 518.56L843.06 518.8L855.78 518.44L856.5 519.28L855.66 526.72L842.22 526.48L828.54 526.6L828.42 538L828.78 553.96L844.02 554.08L862.5 553.6L863.1 554.56ZM936.11 539.44L936.35 562H926.27L886.43 500.44H885.83L885.71 536.68L885.83 562H877.19L877.55 539.2L877.31 485.08H887.27L926.99 546.64H927.83L927.71 485.56L936.71 484.84L936.11 539.44ZM1002.9 554.56L1002.18 562H958.984L959.584 538.84L958.984 485.08H1002.3L1002.78 486.04L1002.06 493.48L983.944 493.12L968.704 493.36L968.464 518.56L982.864 518.8L995.584 518.44L996.304 519.28L995.464 526.72L982.024 526.48L968.344 526.6L968.224 538L968.584 553.96L983.824 554.08L1002.3 553.6L1002.9 554.56ZM1048.19 530.92C1053.47 539.64 1060.11 549.24 1068.11 559.72L1067.99 560.92C1065.11 562.04 1062.15 562.76 1059.11 563.08L1057.79 562.24C1051.23 552.4 1045.35 542.8 1040.15 533.44H1026.11V538L1026.59 562H1016.87L1017.47 538.84L1016.87 485.08L1040.39 484.96C1047.91 484.96 1053.71 486.88 1057.79 490.72C1061.95 494.48 1064.03 499.88 1064.03 506.92C1064.03 512.2 1062.63 516.96 1059.83 521.2C1057.11 525.36 1053.23 528.6 1048.19 530.92ZM1026.23 525.28L1040.63 525.64C1049.59 523.08 1054.07 517.12 1054.07 507.76C1054.07 502.88 1052.75 499.24 1050.11 496.84C1047.47 494.36 1043.51 493.04 1038.23 492.88L1026.59 493.24L1026.23 525.28ZM1113.11 484.48C1121.19 484.48 1128.71 486.28 1135.67 489.88L1133.75 499L1132.55 499.24C1128.71 496.84 1125.15 495.12 1121.87 494.08C1118.67 493.04 1115.27 492.52 1111.67 492.52C1094.31 492.52 1085.63 503.24 1085.63 524.68C1085.63 535 1087.63 542.6 1091.63 547.48C1095.71 552.28 1101.99 554.68 1110.47 554.68C1112.71 554.68 1114.95 554.48 1117.19 554.08C1119.51 553.68 1122.47 552.92 1126.07 551.8L1126.31 542.8L1126.19 531.28L1135.19 530.56L1134.95 541.48L1135.43 558.28C1130.23 559.88 1125.63 561.04 1121.63 561.76C1117.63 562.48 1113.75 562.84 1109.99 562.84C1098.55 562.84 1089.95 559.6 1084.19 553.12C1078.51 546.64 1075.67 537.28 1075.67 525.04C1075.67 511.84 1078.91 501.8 1085.39 494.92C1091.87 487.96 1101.11 484.48 1113.11 484.48ZM1163.46 538L1163.94 562H1154.22L1154.82 538.84L1154.22 485.08H1164.06L1163.46 538ZM1241.89 562H1232.05L1230.25 554.32L1225.93 541.12L1208.65 540.76L1193.05 541.12L1188.37 553.84L1186.45 562H1176.85L1205.05 485.08H1216.21L1241.89 562ZM1223.29 532.96L1210.81 495.04H1209.97L1196.05 532.96L1209.49 533.2L1223.29 532.96ZM1296.39 484.48C1301.91 484.48 1307.63 485.68 1313.55 488.08L1311.99 497.32L1310.31 497.8C1307.99 496.04 1305.51 494.68 1302.87 493.72C1300.31 492.76 1297.75 492.28 1295.19 492.28C1292.23 492.28 1289.63 492.88 1287.39 494.08C1285.23 495.28 1283.55 496.84 1282.35 498.76C1281.23 500.68 1280.67 502.68 1280.67 504.76C1280.67 506.92 1281.31 508.84 1282.59 510.52C1283.95 512.12 1285.63 513.52 1287.63 514.72C1289.63 515.92 1292.35 517.36 1295.79 519.04C1300.11 521.04 1303.59 522.92 1306.23 524.68C1308.87 526.36 1311.11 528.52 1312.95 531.16C1314.87 533.8 1315.83 537 1315.83 540.76C1315.83 544.76 1314.75 548.44 1312.59 551.8C1310.43 555.16 1307.39 557.84 1303.47 559.84C1299.55 561.84 1295.07 562.84 1290.03 562.84C1286.67 562.84 1283.15 562.4 1279.47 561.52C1275.87 560.56 1272.51 559.2 1269.39 557.44L1270.59 547.6L1271.91 547C1274.71 549.72 1277.79 551.76 1281.15 553.12C1284.59 554.4 1287.87 555.04 1290.99 555.04C1294.03 555.04 1296.71 554.44 1299.03 553.24C1301.43 552.04 1303.23 550.44 1304.43 548.44C1305.71 546.44 1306.35 544.32 1306.35 542.08C1306.35 538.72 1305.07 536.04 1302.51 534.04C1299.95 531.96 1296.07 529.72 1290.87 527.32C1286.63 525.24 1283.23 523.4 1280.67 521.8C1278.11 520.12 1275.91 518 1274.07 515.44C1272.23 512.8 1271.31 509.6 1271.31 505.84C1271.31 501.92 1272.35 498.32 1274.43 495.04C1276.59 491.76 1279.55 489.2 1283.31 487.36C1287.15 485.44 1291.51 484.48 1296.39 484.48ZM1359.95 484.36C1370.51 484.36 1378.59 487.6 1384.19 494.08C1389.87 500.56 1392.71 509.88 1392.71 522.04C1392.71 535.16 1389.71 545.28 1383.71 552.4C1377.71 559.44 1369.15 562.96 1358.03 562.96C1347.63 562.96 1339.59 559.6 1333.91 552.88C1328.31 546.16 1325.51 536.6 1325.51 524.2C1325.51 511.4 1328.47 501.56 1334.39 494.68C1340.39 487.8 1348.91 484.36 1359.95 484.36ZM1359.35 492.16C1343.35 492.16 1335.35 502.48 1335.35 523.12C1335.35 534.08 1337.27 542.2 1341.11 547.48C1345.03 552.76 1350.91 555.4 1358.75 555.4C1374.75 555.4 1382.75 544.88 1382.75 523.84C1382.75 513.12 1380.79 505.16 1376.87 499.96C1373.03 494.76 1367.19 492.16 1359.35 492.16ZM1446.68 554.8L1445.84 562H1407.92L1408.52 538.84L1407.92 485.08H1417.76L1417.16 538L1417.52 553.96H1445.96L1446.68 554.8ZM1513.76 562H1503.92L1502.12 554.32L1497.8 541.12L1480.52 540.76L1464.92 541.12L1460.24 553.84L1458.32 562H1448.72L1476.92 485.08H1488.08L1513.76 562ZM1495.16 532.96L1482.68 495.04H1481.84L1467.92 532.96L1481.36 533.2L1495.16 532.96ZM1558.9 530.92C1564.18 539.64 1570.82 549.24 1578.82 559.72L1578.7 560.92C1575.82 562.04 1572.86 562.76 1569.82 563.08L1568.5 562.24C1561.94 552.4 1556.06 542.8 1550.86 533.44H1536.82V538L1537.3 562H1527.58L1528.18 538.84L1527.58 485.08L1551.1 484.96C1558.62 484.96 1564.42 486.88 1568.5 490.72C1572.66 494.48 1574.74 499.88 1574.74 506.92C1574.74 512.2 1573.34 516.96 1570.54 521.2C1567.82 525.36 1563.94 528.6 1558.9 530.92ZM1536.94 525.28L1551.34 525.64C1560.3 523.08 1564.78 517.12 1564.78 507.76C1564.78 502.88 1563.46 499.24 1560.82 496.84C1558.18 494.36 1554.22 493.04 1548.94 492.88L1537.3 493.24L1536.94 525.28Z" fill="white"/>
<path d="M863.135 685.56L862.415 693H819.215L819.815 669.84L819.215 616.08H862.535L863.015 617.04L862.295 624.48L844.175 624.12L828.935 624.36L828.695 649.56L843.095 649.8L855.815 649.44L856.535 650.28L855.695 657.72L842.255 657.48L828.575 657.6L828.455 669L828.815 684.96L844.055 685.08L862.535 684.6L863.135 685.56ZM924.39 615.48C932.47 615.48 939.47 617.4 945.39 621.24L943.47 630L942.39 630.24C937.03 625.76 930.87 623.52 923.91 623.52C916.31 623.52 910.47 626.16 906.39 631.44C902.31 636.64 900.27 644.28 900.27 654.36C900.27 664.52 902.31 672.28 906.39 677.64C910.47 683 916.23 685.68 923.67 685.68C927.19 685.68 930.67 685.04 934.11 683.76C937.63 682.48 940.83 680.68 943.71 678.36L944.91 678.96L944.07 688.08C937.11 691.92 930.03 693.84 922.83 693.84C912.51 693.84 904.51 690.52 898.83 683.88C893.15 677.16 890.31 667.6 890.31 655.2C890.31 642.48 893.27 632.68 899.19 625.8C905.11 618.92 913.51 615.48 924.39 615.48ZM997.654 685.8L996.814 693H958.894L959.494 669.84L958.894 616.08H968.734L968.134 669L968.494 684.96H996.934L997.654 685.8ZM1018.42 669L1018.9 693H1009.18L1009.78 669.84L1009.18 616.08H1019.02L1018.42 669ZM1117.49 693H1108.85L1107.05 669.6L1102.97 631.32H1102.13L1080.77 684.12H1072.85L1052.57 631.32H1051.61L1047.53 668.88L1045.49 693H1037.33L1045.37 616.08H1056.29L1060.25 627.84L1076.93 671.64H1077.65L1095.17 627.12L1099.13 616.08H1109.93L1117.49 693ZM1191.53 693H1181.69L1179.89 685.32L1175.57 672.12L1158.29 671.76L1142.69 672.12L1138.01 684.84L1136.09 693H1126.49L1154.69 616.08H1165.85L1191.53 693ZM1172.93 663.96L1160.45 626.04H1159.61L1145.69 663.96L1159.13 664.2L1172.93 663.96ZM1243.91 617.04L1243.19 624.48L1229.75 623.76H1221.95L1221.59 669L1221.95 693H1212.23L1212.95 669.84L1212.35 623.76H1204.55L1190.87 624.48L1190.27 623.52L1190.99 616.08H1243.19L1243.91 617.04ZM1266.85 669L1267.33 693H1257.61L1258.21 669.84L1257.61 616.08H1267.45L1266.85 669ZM1336.88 623.16L1293.8 685.2H1325.72L1337.12 684.36L1337.6 685.08L1336.76 693.24L1322.84 693H1289.12L1282.28 693.36V686.28L1325.48 624H1295.84L1284.32 624.84L1283.72 624.12L1284.44 615.96L1331 616.08L1336.88 615.96V623.16ZM1408.68 693H1398.84L1397.04 685.32L1392.72 672.12L1375.44 671.76L1359.84 672.12L1355.16 684.84L1353.24 693H1343.64L1371.84 616.08H1383L1408.68 693ZM1390.08 663.96L1377.6 626.04H1376.76L1362.84 663.96L1376.28 664.2L1390.08 663.96ZM1448.34 615.48C1456.42 615.48 1463.42 617.4 1469.34 621.24L1467.42 630L1466.34 630.24C1460.98 625.76 1454.82 623.52 1447.86 623.52C1440.26 623.52 1434.42 626.16 1430.34 631.44C1426.26 636.64 1424.22 644.28 1424.22 654.36C1424.22 664.52 1426.26 672.28 1430.34 677.64C1434.42 683 1440.18 685.68 1447.62 685.68C1451.14 685.68 1454.62 685.04 1458.06 683.76C1461.58 682.48 1464.78 680.68 1467.66 678.36L1468.86 678.96L1468.02 688.08C1461.06 691.92 1453.98 693.84 1446.78 693.84C1436.46 693.84 1428.46 690.52 1422.78 683.88C1417.1 677.16 1414.26 667.6 1414.26 655.2C1414.26 642.48 1417.22 632.68 1423.14 625.8C1429.06 618.92 1437.46 615.48 1448.34 615.48ZM1447.74 699.12L1451.82 701.52C1454.86 703.28 1456.38 705.52 1456.38 708.24C1456.38 710.56 1455.46 712.44 1453.62 713.88C1451.86 715.4 1449.54 716.16 1446.66 716.16C1443.22 716.16 1440.34 714.92 1438.02 712.44L1438.86 707.64L1439.46 707.52C1440.58 708.8 1441.66 709.72 1442.7 710.28C1443.74 710.92 1444.94 711.24 1446.3 711.24C1447.42 711.24 1448.3 710.96 1448.94 710.4C1449.66 709.84 1450.02 709.04 1450.02 708C1450.02 707.36 1449.82 706.8 1449.42 706.32C1449.02 705.92 1448.38 705.48 1447.5 705L1441.74 701.52L1444.74 690.72H1450.26L1447.74 699.12ZM1538.76 693H1528.92L1527.12 685.32L1522.8 672.12L1505.52 671.76L1489.92 672.12L1485.24 684.84L1483.32 693H1473.72L1501.92 616.08H1513.08L1538.76 693ZM1520.16 663.96L1507.68 626.04H1506.84L1492.92 663.96L1506.36 664.2L1520.16 663.96ZM1525.68 594V594.96L1518.36 603.24L1517.16 603.6C1515.4 603.44 1512.04 602.64 1507.08 601.2C1502.52 599.84 1499.68 599.16 1498.56 599.16C1498 599.16 1497.4 599.44 1496.76 600C1496.12 600.48 1495.12 601.4 1493.76 602.76L1491.84 604.8H1490.76L1487.88 601.68V600.84L1495.2 592.56L1496.4 592.2C1498.32 592.36 1501.64 593.16 1506.36 594.6C1506.92 594.76 1508.28 595.12 1510.44 595.68C1512.6 596.24 1514.12 596.52 1515 596.52C1515.64 596.52 1516.32 596.24 1517.04 595.68C1517.76 595.12 1518.68 594.24 1519.8 593.04L1521.84 591H1522.8L1525.68 594ZM1578.77 615.36C1589.33 615.36 1597.41 618.6 1603.01 625.08C1608.69 631.56 1611.53 640.88 1611.53 653.04C1611.53 666.16 1608.53 676.28 1602.53 683.4C1596.53 690.44 1587.97 693.96 1576.85 693.96C1566.45 693.96 1558.41 690.6 1552.73 683.88C1547.13 677.16 1544.33 667.6 1544.33 655.2C1544.33 642.4 1547.29 632.56 1553.21 625.68C1559.21 618.8 1567.73 615.36 1578.77 615.36ZM1578.17 623.16C1562.17 623.16 1554.17 633.48 1554.17 654.12C1554.17 665.08 1556.09 673.2 1559.93 678.48C1563.85 683.76 1569.73 686.4 1577.57 686.4C1593.57 686.4 1601.57 675.88 1601.57 654.84C1601.57 644.12 1599.61 636.16 1595.69 630.96C1591.85 625.76 1586.01 623.16 1578.17 623.16Z" fill="white"/>
</g>
<defs>
<clipPath id="clip0_56_2">
<rect width="1953" height="943" fill="white"/>
</clipPath>
</defs>
</svg>
